<?xml version="1.0" encoding="UTF-8"?>
<svg version="1.1" xmlns="http://www.w3.org/2000/svg" width="1256" height="1256">
<path d="M0 0 C336.92961322 0 336.92961322 0 365.1875 5.25 C366.32566162 5.45834473 367.46382324 5.66668945 368.63647461 5.88134766 C409.50451599 13.68216834 448.44126398 29.9159625 481 56 C481.5676709 56.45197754 482.1353418 56.90395508 482.72021484 57.36962891 C524.15516313 90.62199438 549.54442734 138.8620152 558 191 C558.22647217 192.37744385 558.22647217 192.37744385 558.45751953 193.78271484 C560.71748457 208.18846826 561.28677562 222.44747596 561.3125 237 C561.31608521 237.81167633 561.31967041 238.62335266 561.32336426 239.45962524 C561.43388391 285.89845417 548.69303582 334.21725345 521 372 C520.23171875 373.051875 519.4634375 374.10375 518.671875 375.1875 C512.92470561 382.9140087 506.65617629 390.04966587 500 397 C499.29254639 397.74830078 499.29254639 397.74830078 498.57080078 398.51171875 C478.78882498 419.35882633 453.93707781 434.91838115 428 447 C426.95416748 447.49064941 426.95416748 447.49064941 425.88720703 447.99121094 C350.74698117 482.73911597 258.12565891 473 180 473 C180 560.12 180 647.24 180 737 C120.6 737 61.2 737 0 737 C0 493.79 0 250.58 0 0 Z M180 145 C180 205.72 180 266.44 180 329 C197.263125 329.04125 214.52625 329.0825 232.3125 329.125 C237.72567627 329.14320801 243.13885254 329.16141602 248.71606445 329.18017578 C253.64815395 329.18687232 253.64815395 329.18687232 258.58024597 329.19088745 C260.74525276 329.19392107 262.91025657 329.20087519 265.07524109 329.21115112 C290.76683542 329.36846192 290.76683542 329.36846192 315.9375 324.6875 C316.7219751 324.46876221 317.5064502 324.25002441 318.31469727 324.0246582 C338.35059874 318.2750822 355.8469197 307.01135426 366.546875 288.75390625 C379.58746879 264.03987769 382.10909652 231.61640967 374.36572266 204.80371094 C372.85113226 200.07235779 371.01243322 195.54036658 369 191 C368.55914063 190.00484375 368.11828125 189.0096875 367.6640625 187.984375 C358.97402269 170.4033696 342.25850022 158.19334476 324.203125 151.55859375 C303.76754702 144.68101173 281.70024307 144.55144031 260.37109375 144.70703125 C258.29170984 144.7114623 256.21232253 144.71451033 254.13293457 144.71618652 C246.56773746 144.73168125 239.00261277 144.773562 231.4375 144.8125 C205.9759375 144.9053125 205.9759375 144.9053125 180 145 Z " fill="#7338F2" transform="translate(266,163)"/>
<path d="M0 0 C59.07 0 118.14 0 179 0 C179 243.21 179 486.42 179 737 C119.93 737 60.86 737 0 737 C0 493.79 0 250.58 0 0 Z " fill="#7338F2" transform="translate(8,163)"/>
<path d="M0 0 C15.21254278 -0.07024022 30.42507805 -0.12306148 45.63774681 -0.15543652 C52.70207533 -0.1708718 59.76630278 -0.19189698 66.83056641 -0.22631836 C73.65163756 -0.25953877 80.47260378 -0.27686815 87.29375076 -0.28463173 C89.89237746 -0.29016243 92.49099862 -0.3009625 95.08958054 -0.31719017 C98.73741679 -0.33905834 102.38482328 -0.34196292 106.03271484 -0.34057617 C107.63386642 -0.35675491 107.63386642 -0.35675491 109.2673645 -0.3732605 C120.92767856 -0.32548954 129.31662047 2.5439463 137.72265625 10.6640625 C144.56805191 18.03085193 145.64089065 25.34433359 145.40625 35.1796875 C144.36398209 44.98101458 139.67712957 53.74406915 132 60 C125.15599888 64.01252957 118.04449594 63.38249065 110.31640625 63.29296875 C108.89151966 63.28736582 107.46662725 63.28309902 106.04173279 63.28010559 C102.31144953 63.26871153 98.58152284 63.23929225 94.85137939 63.20599365 C91.03703635 63.17517458 87.22263508 63.1615751 83.40820312 63.14648438 C75.93862156 63.11441636 68.46940639 63.06169403 61 63 C61 70.26 61 77.52 61 85 C65.40859375 84.93039062 65.40859375 84.93039062 69.90625 84.859375 C72.7724434 84.8281244 75.63861736 84.80386798 78.50488281 84.78027344 C80.48739199 84.76023503 82.46984263 84.73299647 84.45214844 84.69824219 C87.31199641 84.64938046 90.17105881 84.62695327 93.03125 84.609375 C93.90865845 84.58872986 94.78606689 84.56808472 95.69006348 84.54681396 C103.04848498 84.54416819 107.96964553 86.52472703 113.65234375 91.16650391 C114.40644531 91.92882324 115.16054687 92.69114258 115.9375 93.4765625 C117.18466797 94.72953125 117.18466797 94.72953125 118.45703125 96.0078125 C119.29621094 96.87148438 120.13539063 97.73515625 121 98.625 C121.87011719 99.49640625 122.74023438 100.3678125 123.63671875 101.265625 C130 107.71881132 130 107.71881132 130 110 C130.556875 110.226875 131.11375 110.45375 131.6875 110.6875 C135.68438886 112.95600449 138.53966649 115.61899946 140 120 C140.99 120.33 141.98 120.66 143 121 C144.578125 122.63671875 144.578125 122.63671875 146.25 124.6875 C148.56147136 127.42322876 150.85990547 129.84892874 153.625 132.125 C156.88481655 134.80998283 159.34543711 137.71672485 162 141 C163.6459651 142.68711423 165.31237149 144.3545622 167 146 C168.13181877 147.13328745 169.26363168 148.26658075 170.39541626 149.39990234 C172.35757659 151.35657688 174.32841961 153.30432548 176.29956055 155.25195312 C180.32038559 159.22494881 184.33471284 163.20440811 188.34424114 167.18880463 C190.76113745 169.58999578 193.18078937 171.98827404 195.60668945 174.38037109 C198.41668839 177.15148866 201.21446863 179.93476161 204.01171875 182.71875 C204.88253586 183.57408325 205.75335297 184.4294165 206.65055847 185.31066895 C207.45511978 186.11500366 208.25968109 186.91933838 209.08862305 187.74804688 C210.15188057 188.80131165 210.15188057 188.80131165 211.23661804 189.87585449 C214.56157767 193.88105485 215.25025396 197.51012972 215.29052734 202.62548828 C215.30328705 203.73078888 215.31604675 204.83608948 215.32919312 205.97488403 C215.33253159 207.75462112 215.33253159 207.75462112 215.3359375 209.5703125 C215.3425943 210.80232391 215.3492511 212.03433533 215.35610962 213.30368042 C215.36623035 215.9110973 215.37092682 218.51854006 215.37060547 221.12597656 C215.37496114 225.08963526 215.41124134 229.0521645 215.44921875 233.015625 C215.45509068 235.55468371 215.45905755 238.09374769 215.4609375 240.6328125 C215.47530853 241.80715851 215.48967957 242.98150452 215.50448608 244.19143677 C215.44421809 255.20252761 212.92456888 264.02166461 205.22265625 272.0546875 C197.95882313 278.41213723 191.28903421 280.15760637 181.83496094 280.11352539 C181.0150769 280.11367142 180.19519287 280.11381744 179.35046387 280.1139679 C176.64507384 280.11327218 173.93975298 280.10549572 171.234375 280.09765625 C169.35679156 280.09579086 167.47920763 280.09436753 165.60162354 280.09336853 C160.66311293 280.08955289 155.72463179 280.07973071 150.78613281 280.06866455 C145.74544676 280.05842996 140.70475595 280.05386652 135.6640625 280.04882812 C125.77602873 280.03810761 115.88801682 280.0210426 106 280 C106.00368717 280.86084104 106.00737434 281.72168207 106.01117325 282.6086092 C106.09962659 303.58392024 106.16575936 324.55919899 106.20724869 345.53465748 C106.22784747 355.67836531 106.25591665 365.82194841 106.30175781 375.96557617 C106.34170786 384.8098707 106.36745232 393.65407487 106.37635398 402.49845713 C106.38155491 407.17870474 106.39372278 411.85869389 106.42292023 416.53885841 C106.45021857 420.95065836 106.45841607 425.36209517 106.45243073 429.77397156 C106.45352455 431.38676621 106.46139222 432.99957394 106.4768219 434.61229515 C106.58007533 445.96848213 105.93758217 456.70506074 97.75 465.4375 C97.04359375 466.21996094 96.3371875 467.00242187 95.609375 467.80859375 C79.56753719 481.28085574 62.19101157 474 40 474 C40 409.98 40 345.96 40 280 C3.37 280 -33.26 280 -71 280 C-79.49215034 207.93803857 -79.49215034 207.93803857 -67.90960693 192.43347168 C-64.1267715 187.99064833 -59.89605204 184.13257111 -55.44921875 180.3671875 C-54.68821743 179.72276199 -53.92721611 179.07833649 -53.14315414 178.41438293 C-46.72987513 173.06157873 -40.13512366 167.94038534 -33.55982971 162.78947449 C-15.02505493 148.10864542 -0.43937074 133.78185074 2.68131936 109.50181198 C4.60466649 92.78005971 4.43712869 75.91945773 3.875 59.125 C3.85127744 58.39262556 3.82755488 57.66025112 3.80311346 56.90568352 C3.17312893 37.88509169 1.90573953 18.93801257 0 0 Z M38.0390625 176.9140625 C35.76698496 179.23837171 33.35243277 181.2224456 30.8125 183.25 C25.9517631 187.14934634 21.3963174 191.28142095 16.85693359 195.54223633 C12.52076269 199.58626306 8.01592076 203.31539417 3.33984375 206.96484375 C0.87298434 209.11047606 -0.99146708 211.42908844 -3 214 C11.72552255 214.0935886 26.45100555 214.16405014 41.17676544 214.20724869 C48.01475488 214.22784287 54.85255914 214.25590277 61.69042969 214.30175781 C68.29102658 214.34600045 74.89148185 214.36914728 81.49223328 214.37950897 C84.0087944 214.38689193 86.52534518 214.4013091 89.04182434 214.42292023 C92.57043073 214.45201444 96.09824582 214.45595332 99.62695312 214.45410156 C100.66417511 214.46848267 101.70139709 214.48286377 102.77005005 214.49768066 C108.95593582 214.46262224 113.90728445 213.71885531 119 210 C122.90689436 205.6118779 123.45666718 201.27954396 123.53125 195.52734375 C121.27442758 184.79084298 107.13471998 174.49995942 98.63671875 168.5078125 C78.29600486 155.95314671 54.3034896 159.44486302 38.0390625 176.9140625 Z " fill="#160051" transform="translate(940,619)"/>
<path d="M0 0 C21.78 0 43.56 0 66 0 C66 16.5 66 33 66 50 C85.34101749 49.98229067 104.68163385 49.94398058 124.02250195 49.86790943 C133.00274053 49.83325147 141.9828255 49.80790286 150.96313477 49.80444336 C158.79009865 49.80140458 166.61678899 49.78092582 174.44364721 49.73947543 C178.58826172 49.71813572 182.73248725 49.70554965 186.87715721 49.71384621 C190.77863134 49.72138044 194.67931692 49.70559034 198.58064651 49.67193985 C200.01208612 49.66369882 201.44360402 49.66396591 202.87503624 49.67340279 C204.83072656 49.68501902 206.78653019 49.66295239 208.74211121 49.63923645 C210.38336361 49.63508838 210.38336361 49.63508838 212.05777264 49.63085651 C215.96827854 48.79238694 217.49058167 47.03865995 220 44 C220.7412553 41.74698783 220.7412553 41.74698783 220.65942383 39.39331055 C220.68888847 38.0725074 220.68888847 38.0725074 220.71894836 36.72502136 C220.71501572 35.7883815 220.71108307 34.85174164 220.70703125 33.88671875 C220.72971321 32.43239189 220.72971321 32.43239189 220.75285339 30.94868469 C220.79573491 27.86138663 220.80456899 24.77506622 220.8125 21.6875 C220.8356439 19.59046879 220.86100901 17.49346084 220.88867188 15.39648438 C220.95152905 10.26423647 220.98386075 5.13259887 221 0 C225.80141735 -0.04989482 230.60267969 -0.08595085 235.40429688 -0.10986328 C237.03355543 -0.1198449 238.66279644 -0.13343499 240.29199219 -0.15087891 C254.34886329 -0.29748431 267.42996895 -0.43121003 278.25 9.75 C284.44900937 16.27783698 287.11082887 22.9713401 287.14717102 31.91175842 C287.15790398 33.72623978 287.15790398 33.72623978 287.16885376 35.57737732 C287.17169385 36.91494725 287.1744056 38.25251746 287.17700195 39.59008789 C287.1832699 41.00138515 287.189917 42.41268078 287.19691467 43.82397461 C287.21792479 48.45685687 287.22831684 53.08973933 287.23828125 57.72265625 C287.24233048 59.32096308 287.24644745 60.91926974 287.25063133 62.51757622 C287.26967934 70.0305951 287.28390903 77.54360421 287.2922433 85.05664259 C287.30200304 93.7105357 287.32829099 102.36417217 287.36874419 111.01797491 C287.39898177 117.71796186 287.41371955 124.41787558 287.41702431 131.1179294 C287.41936684 135.11400943 287.42822202 139.10981518 287.45348549 143.10582161 C287.47690441 146.8709403 287.48094464 150.63560685 287.47072411 154.40077972 C287.46999898 156.42520036 287.48899424 158.44959874 287.50878906 160.47392273 C287.44797271 171.24137175 285.55790574 180.33180597 277.91796875 188.28125 C269.301295 196.00291284 260.40103847 197.30672471 249.1673584 197.24050903 C247.56451988 197.24307231 247.56451988 197.24307231 245.92930079 197.24568737 C242.36100135 197.24897263 238.79289139 197.23799429 235.22460938 197.22705078 C232.66188562 197.22648646 230.09916155 197.22680364 227.53643799 197.22793579 C222.02534082 197.22839073 216.5143043 197.22273047 211.0032196 197.21146011 C203.03522154 197.19517593 195.06724635 197.18999413 187.09923345 197.18748413 C174.17030929 197.1831116 161.24141043 197.16981451 148.3125 197.15087891 C135.75651168 197.13250866 123.20053028 197.1183807 110.64453125 197.10986328 C109.86212444 197.10932729 109.07971764 197.10879129 108.27360153 197.10823905 C102.15427029 197.10407998 96.0349389 197.10016621 89.91560745 197.09632993 C59.94371508 197.07747742 29.97188607 197.0372373 0 197 C0 131.99 0 66.98 0 0 Z M66 117 C66 121.62 66 126.24 66 131 C85.34081274 131.06943666 104.68159029 131.1229786 124.02250195 131.15543652 C133.00275604 131.17090763 141.98293128 131.19200183 150.96313477 131.22631836 C158.78997278 131.25621322 166.61675369 131.27557322 174.44364721 131.28226548 C178.58822245 131.2861776 182.73263431 131.29537666 186.87715721 131.31719017 C190.77838116 131.33755673 194.67937446 131.34383349 198.58064651 131.33932304 C200.01212251 131.34014817 201.44360623 131.34611295 202.87503624 131.35761642 C204.83067107 131.37256131 206.78642973 131.36716156 208.74211121 131.36076355 C209.83627948 131.36352893 210.93044775 131.36629431 212.05777264 131.36914349 C215.70194423 130.9119313 218.3847615 129.6152385 221 127 C221.28217855 123.82549128 221.35840581 121.68652746 219.86757946 118.83084488 C217.22838945 116.24356674 215.52620773 116.506921 211.86872864 116.51898193 C209.94411552 116.51073395 209.94411552 116.51073395 207.98062134 116.50231934 C206.55584345 116.51647601 205.13106932 116.53101525 203.70629883 116.54589844 C202.20833873 116.54702654 200.71037641 116.54639379 199.2124176 116.54412842 C195.14228409 116.54297886 191.07262031 116.56652688 187.00259614 116.59442425 C182.75050873 116.61939784 178.49841103 116.6217767 174.2462616 116.62652588 C166.19266647 116.63896758 158.13928805 116.67180525 150.08578843 116.71192384 C140.91784651 116.75660447 131.74989434 116.77861924 122.58187068 116.79870558 C103.72112077 116.84053692 84.86058573 116.91171605 66 117 Z " fill="#160051" transform="translate(519,703)"/>
<path d="M0 0 C65.38607936 -0.1613254 65.38607936 -0.1613254 92.69335938 -0.1953125 C98.94360394 -0.20314378 105.1938481 -0.21122565 111.4440918 -0.21972656 C112.22743902 -0.22078156 113.01078625 -0.22183655 113.81787127 -0.22292352 C126.4581668 -0.24031242 139.09838941 -0.27184308 151.73864173 -0.30861118 C164.71461304 -0.34604054 177.69054622 -0.36824007 190.66656929 -0.37635398 C198.67105512 -0.38183763 206.67533491 -0.39914619 214.6797573 -0.43166587 C220.82149479 -0.45534428 226.96307578 -0.4578148 233.10485268 -0.45243073 C235.62151227 -0.45353073 238.1381797 -0.4614815 240.65479279 -0.4768219 C244.09387289 -0.49675623 247.53207525 -0.49192566 250.97117615 -0.48101807 C252.46099547 -0.49849512 252.46099547 -0.49849512 253.98091215 -0.51632524 C262.89992563 -0.43999264 271.53656175 2.6405711 278 9 C284.66580874 17.6343266 288.15050366 26.0062984 287 37 C285.13359885 46.94368346 280.45055364 54.6924473 272.3203125 60.7109375 C266.03357204 64.20357109 260.63510316 65.44396163 253.55908203 65.36076355 C252.74778682 65.36332682 251.9364916 65.3658901 251.10061169 65.36853105 C248.40280482 65.37344247 245.70556714 65.35702009 243.0078125 65.34057617 C241.0657706 65.33972933 239.12372774 65.34020616 237.1816864 65.34190369 C231.92397869 65.34276282 226.66647718 65.32515019 221.40881729 65.30418181 C215.9088674 65.28540145 210.40891255 65.2836635 204.90893555 65.28010559 C194.5004037 65.27078914 184.09196661 65.2461807 173.68347645 65.21605712 C161.83105094 65.18250072 149.97862087 65.16602397 138.12615967 65.15097082 C113.7507085 65.11963083 89.37538721 65.06462367 65 65 C65 86.45 65 107.9 65 130 C77.89320313 129.94779297 77.89320313 129.94779297 91.046875 129.89453125 C97.20140964 129.87724275 103.35592592 129.86186589 109.51046944 129.8492384 C117.47301765 129.83264798 125.43547103 129.81162265 133.39794922 129.77368164 C139.70461703 129.74364503 146.01121312 129.72439339 152.31795049 129.71773452 C155.65294533 129.71384616 158.9875736 129.70319192 162.32253265 129.68280983 C166.05856773 129.66089366 169.79418398 129.65803906 173.53027344 129.65942383 C175.16271751 129.64324509 175.16271751 129.64324509 176.82814026 129.6267395 C187.81605028 129.67053777 197.82337664 131.22363093 206 139 C212.43582487 145.58209361 216.05520404 153.867555 216.3125 163.0625 C216.14945749 173.27983066 212.48034708 180.52999041 205.4453125 187.83203125 C198.27855839 194.18594264 191.7112318 196.15791463 182.30584717 196.12025452 C181.13972397 196.12153854 181.13972397 196.12153854 179.95004272 196.12284851 C177.33483596 196.12450471 174.71969311 196.1189784 172.10449219 196.11352539 C170.20166653 196.11321909 168.29884077 196.11335248 166.39601517 196.11389065 C161.29530133 196.11411663 156.1946109 196.10831614 151.09390259 196.10128021 C146.30950852 196.09558992 141.52512017 196.09531734 136.74072266 196.09460449 C122.743812 196.08935487 108.7469057 196.07539375 94.75 196.0625 C63.4825 196.041875 32.215 196.02125 0 196 C0 131.32 0 66.64 0 0 Z " fill="#160051" transform="translate(869,410)"/>
<path d="M0 0 C9.095625 -0.0928125 9.095625 -0.0928125 18.375 -0.1875 C20.26782715 -0.21481201 22.1606543 -0.24212402 24.11083984 -0.27026367 C35.92275368 -0.37138073 45.54509716 0.09328488 54.95703125 7.97265625 C61.36878761 14.33537432 65.17399103 21.57687183 65.38061523 30.70898438 C65.35063404 41.60649626 63.42439749 49.28134133 55.77734375 57.31640625 C45.12590941 67.4060067 32.0576994 66.38493062 18.375 66.1875 C12.31125 66.125625 6.2475 66.06375 0 66 C0 44.22 0 22.44 0 0 Z " fill="#160051" transform="translate(1184,702)"/>
<path d="M0 0 C9.095625 -0.0928125 9.095625 -0.0928125 18.375 -0.1875 C20.26782715 -0.21481201 22.1606543 -0.24212402 24.11083984 -0.27026367 C35.92275368 -0.37138073 45.54509716 0.09328488 54.95703125 7.97265625 C61.36878761 14.33537432 65.17399103 21.57687183 65.38061523 30.70898438 C65.35096319 41.48685656 63.47569077 49.26939353 55.91796875 57.24609375 C47.961951 64.52155601 39.42686315 66.33339827 28.90625 66.1953125 C27.79781738 66.19229126 27.79781738 66.19229126 26.66699219 66.18920898 C23.944597 66.17885874 21.2222913 66.15093751 18.5 66.125 C9.3425 66.063125 9.3425 66.063125 0 66 C0 44.22 0 22.44 0 0 Z " fill="#160051" transform="translate(1184,833)"/>
</svg>
